PathFileType	4	(X/Y/Z)	OpenSim_Sub11_EMGPreOp_Magnet.trc
DataRate	CameraRate	NumFrames	NumMarkers	Units	OrigDataRate	OrigDataStartFrame	OrigNumFrames
100	100	36	8	m	100	4414	5885
Frame#	Time	torso_imu_offset_imu	pelvis_imu_offset_imu	tibia_r_imu_offset_imu	femur_r_imu_offset_imu	tibia_l_imu_offset_imu	femur_l_imu_offset_imu	toes_r_imu_offset_imu	toes_l_imu_offset_imu
				X1	Y1	Z1	X2	Y2	Z2	X3	Y3	Z3	X4	Y4	Z4	X5	Y5	Z5	X6	Y6	Z6	X7	Y7	Z7	X8		Y8	Z8	

4414	44.13000000	-0.93085088	-0.22205849	0.07825706	-0.51166320	0.05917253	-0.68262417	-0.61467064	-0.53313324	-0.23361026	-0.55631421	-0.62156757	0.04007431	-0.64742208	0.53740789	0.05370113	-0.75958649	-0.08010703	0.27552407	-0.63680014	-0.42266379	-0.46727758	-0.75947285	0.08564858	-0.28648836
4415	44.14000000	-0.93139795	-0.21679063	0.07166281	-0.50975817	0.05825347	-0.67515733	-0.61220737	-0.54114795	-0.23517115	-0.55321531	-0.61942166	0.04952166	-0.66289565	0.51565607	0.06804060	-0.75665640	-0.07450337	0.28831007	-0.63597055	-0.42103901	-0.45783592	-0.74946486	0.07339187	-0.29309802
4416	44.15000000	-0.93364229	-0.21617643	0.08152126	-0.51211765	0.04939226	-0.67640637	-0.60758935	-0.54440528	-0.23458871	-0.55420864	-0.62819715	0.05292262	-0.68060369	0.48730944	0.07361270	-0.75737691	-0.07499891	0.28994956	-0.64093231	-0.43111023	-0.45553936	-0.74382234	0.05105003	-0.31106998
4417	44.16000000	-0.92902162	-0.22084531	0.08302808	-0.50747846	0.05545144	-0.67922567	-0.60823728	-0.54318476	-0.23318628	-0.54494401	-0.62226387	0.05301642	-0.68668134	0.47506036	0.07662185	-0.74971953	-0.06151223	0.29083055	-0.63273309	-0.42306715	-0.45625063	-0.72938163	0.04160084	-0.32919552
4418	44.17000000	-0.93368244	-0.21509999	0.08007632	-0.51110974	0.04835841	-0.68498758	-0.60982912	-0.54876902	-0.23819043	-0.54897213	-0.62700146	0.04964542	-0.70434521	0.45087634	0.07555145	-0.75509065	-0.05825699	0.28759920	-0.64090177	-0.42266668	-0.46154995	-0.72853148	0.02342464	-0.34962003
4419	44.18000000	-0.92485224	-0.21591158	0.08767992	-0.51801856	0.05418900	-0.68653624	-0.60260208	-0.55028778	-0.23637771	-0.55410799	-0.62582671	0.04896267	-0.72391642	0.43449324	0.08099305	-0.76469136	-0.04582403	0.29266958	-0.64968438	-0.42152108	-0.46287116	-0.72806243	0.01218649	-0.36221135
4420	44.19000000	-0.92869245	-0.21734970	0.08448853	-0.51228124	0.04142355	-0.68381728	-0.60010395	-0.55032894	-0.23721594	-0.54637848	-0.63546341	0.05482389	-0.72872397	0.40917056	0.08654833	-0.75431250	-0.04516207	0.29881777	-0.64631776	-0.42675893	-0.45932448	-0.71520558	-0.00998287	-0.36947807
4421	44.20000000	-0.92539546	-0.21230909	0.08488553	-0.52261399	0.04300644	-0.68241370	-0.59988853	-0.55555039	-0.23391190	-0.55376912	-0.63203970	0.05796414	-0.74310606	0.39415242	0.09014847	-0.76151643	-0.03118847	0.30246484	-0.65276807	-0.42633445	-0.46015689	-0.71580981	-0.01685974	-0.37773007
4422	44.21000000	-0.93023115	-0.21459492	0.08579465	-0.52051319	0.04221447	-0.68513758	-0.59681512	-0.55646018	-0.24000165	-0.54837214	-0.63755124	0.05704899	-0.75045144	0.37875323	0.09237346	-0.75937177	-0.02680289	0.30449135	-0.65289814	-0.43117175	-0.46138545	-0.71331738	-0.03070659	-0.38501803
4423	44.22000000	-0.92784817	-0.21144701	0.08629138	-0.51550711	0.04439612	-0.68598961	-0.59734225	-0.55833424	-0.24203683	-0.54409872	-0.63752522	0.05719360	-0.75090334	0.36798053	0.09630795	-0.75216349	-0.01589734	0.30745804	-0.65060997	-0.42626212	-0.46082408	-0.70725416	-0.03497867	-0.38667005
4424	44.23000000	-0.92577143	-0.21013409	0.08676337	-0.51240732	0.04208563	-0.68548278	-0.59788125	-0.55611879	-0.24033735	-0.53892560	-0.63919348	0.05523228	-0.74881974	0.35530306	0.09796217	-0.74701942	-0.01048901	0.31197410	-0.64788383	-0.43021815	-0.46282841	-0.70252014	-0.04154886	-0.38641333
4425	44.24000000	-0.93016497	-0.21000022	0.09100471	-0.51560998	0.04731059	-0.67864034	-0.58742177	-0.56264334	-0.24296568	-0.54243400	-0.63922666	0.06377930	-0.75604514	0.35289369	0.10996406	-0.74952541	-0.00145043	0.32165367	-0.65292893	-0.42536771	-0.45436191	-0.70746233	-0.03883622	-0.37404423
4426	44.25000000	-0.92866024	-0.21115437	0.08703423	-0.50736444	0.04578067	-0.67594430	-0.58759769	-0.56359221	-0.24490657	-0.53178214	-0.64103393	0.06669289	-0.74787730	0.34925132	0.11891426	-0.73987197	0.00432559	0.32941616	-0.64387949	-0.42775406	-0.45100239	-0.70027260	-0.04203851	-0.36788542
4427	44.26000000	-0.92720982	-0.21108322	0.08996271	-0.51433028	0.04066475	-0.68258422	-0.58571769	-0.56739983	-0.24283921	-0.53613744	-0.64589460	0.05625811	-0.75442848	0.34601011	0.11974973	-0.74530388	0.00731480	0.32865240	-0.65396336	-0.42946414	-0.45684677	-0.71553242	-0.04575581	-0.36454101
4428	44.27000000	-0.92718703	-0.20416529	0.08843203	-0.51392932	0.05024467	-0.68800780	-0.57893062	-0.57220818	-0.24034913	-0.53312610	-0.63906185	0.05247220	-0.74753562	0.35999384	0.12455584	-0.74051837	0.01880743	0.33085379	-0.65363985	-0.42028343	-0.45578752	-0.71779803	-0.03724819	-0.36032347
4429	44.28000000	-0.92424292	-0.20485002	0.08784962	-0.50646263	0.04341275	-0.68005308	-0.57629644	-0.57712750	-0.24518399	-0.52544851	-0.64791507	0.05562669	-0.73940273	0.35922230	0.13612665	-0.73101840	0.01180162	0.34165439	-0.64564697	-0.43167678	-0.45150424	-0.71716512	-0.04471527	-0.34843592
4430	44.29000000	-0.92808046	-0.20810704	0.08840126	-0.51283949	0.04040662	-0.67988014	-0.57526534	-0.57965727	-0.24639258	-0.52969021	-0.65424802	0.05678025	-0.74034207	0.36197578	0.14670729	-0.73493421	0.01004883	0.35032011	-0.65486194	-0.43439960	-0.44834263	-0.72808936	-0.05125370	-0.33308705
4431	44.30000000	-0.93268946	-0.20455414	0.08468340	-0.51073792	0.04246114	-0.68134106	-0.57142685	-0.57311620	-0.24564954	-0.52624716	-0.65316184	0.04863069	-0.73240931	0.37586591	0.15144398	-0.72933962	0.01376907	0.35183700	-0.65348397	-0.43286944	-0.45658501	-0.72825528	-0.06438684	-0.32845832
4432	44.31000000	-0.92395126	-0.20476365	0.08890581	-0.50536349	0.04493361	-0.68829421	-0.56868369	-0.58440729	-0.24867456	-0.52448661	-0.65393681	0.04122403	-0.72371156	0.38867103	0.14858997	-0.72430704	0.01955553	0.35270620	-0.65279291	-0.43157713	-0.45855758	-0.72496285	-0.06859402	-0.33964693
4433	44.32000000	-0.92576841	-0.20806366	0.09112825	-0.50671091	0.04415037	-0.68731153	-0.56478587	-0.58338575	-0.25483812	-0.52202037	-0.65928809	0.04181522	-0.72108491	0.39477941	0.14857998	-0.72415256	0.02156541	0.36383950	-0.65533379	-0.43064355	-0.45450381	-0.72201760	-0.05625240	-0.35201323
4434	44.33000000	-0.92380978	-0.20481401	0.08980007	-0.50133585	0.04709440	-0.68401515	-0.56344840	-0.58267160	-0.25372613	-0.51724540	-0.65702373	0.04558166	-0.71975391	0.40203334	0.14901011	-0.71473977	0.02823832	0.37360479	-0.64968941	-0.43235137	-0.44890326	-0.71223152	-0.04889233	-0.36182076
4435	44.34000000	-0.92631453	-0.20365548	0.09114702	-0.50632537	0.04199258	-0.68366167	-0.55959409	-0.58438275	-0.25636531	-0.52408686	-0.66346376	0.04277552	-0.73198831	0.38596452	0.14408623	-0.71704388	0.03268730	0.38274814	-0.65790827	-0.43649842	-0.45162775	-0.72479575	-0.06595352	-0.34700489
4436	44.35000000	-0.93327073	-0.20350569	0.08958433	-0.50347334	0.04916609	-0.69355694	-0.55457759	-0.58456051	-0.25743327	-0.52299144	-0.65393922	0.03765492	-0.73893368	0.37532999	0.14788565	-0.71608537	0.04763101	0.38557146	-0.66153285	-0.42746261	-0.45543086	-0.73389453	-0.05581359	-0.33590813
4437	44.36000000	-0.92260356	-0.20498243	0.09210987	-0.50236953	0.03986223	-0.69820491	-0.55044900	-0.58751010	-0.26719957	-0.52184799	-0.66653569	0.03751018	-0.74268576	0.36016647	0.15294988	-0.71269947	0.04635108	0.38181521	-0.66335744	-0.43407600	-0.45613556	-0.72587527	-0.05009754	-0.36556108
4438	44.37000000	-0.92139677	-0.20750745	0.09531440	-0.50232972	0.03435337	-0.69772555	-0.54422550	-0.59214772	-0.26520768	-0.51981895	-0.66948052	0.03949429	-0.73964053	0.35351371	0.15939604	-0.71364638	0.04774862	0.38023737	-0.66019076	-0.43537121	-0.45495543	-0.73110261	-0.05445198	-0.35145768
4439	44.38000000	-0.92725932	-0.20211643	0.09819510	-0.50551950	0.03833555	-0.69784748	-0.54625054	-0.59901899	-0.26677947	-0.52416666	-0.66637214	0.04073842	-0.74179160	0.36285021	0.16851370	-0.71843491	0.05877072	0.37949883	-0.66627089	-0.43477171	-0.45086394	-0.73179523	-0.05718123	-0.35003841
4440	44.39000000	-0.92892052	-0.19836498	0.10082598	-0.50090078	0.04558317	-0.69188810	-0.54315174	-0.60313358	-0.27035547	-0.51911510	-0.66164979	0.04565562	-0.73472657	0.37855769	0.17345401	-0.71329347	0.07431191	0.38261120	-0.66769657	-0.42767410	-0.44293697	-0.73005643	-0.05256003	-0.34778724
4441	44.40000000	-0.92494833	-0.19751716	0.10247833	-0.49401008	0.04103098	-0.69046449	-0.53710158	-0.59973007	-0.27437044	-0.51500289	-0.66107317	0.05000488	-0.72446069	0.38187731	0.17921170	-0.70862693	0.07395619	0.38753428	-0.66077769	-0.42800388	-0.43763932	-0.72696975	-0.05464187	-0.34327295
4442	44.41000000	-0.93024908	-0.19906889	0.09323599	-0.48856641	0.04698615	-0.69974220	-0.52768326	-0.59965920	-0.27851648	-0.51185554	-0.65663396	0.03976051	-0.72207511	0.39212957	0.17062084	-0.70571150	0.07981484	0.37898792	-0.66045548	-0.42341443	-0.44834343	-0.72403954	-0.04781305	-0.35345409
4443	44.42000000	-0.93255972	-0.19174657	0.10034807	-0.48992668	0.04051909	-0.69811726	-0.52360032	-0.60445849	-0.27761768	-0.51603576	-0.66648282	0.04239257	-0.72628888	0.38358384	0.17253201	-0.70947764	0.07349133	0.38193188	-0.66705008	-0.43223449	-0.44524581	-0.72944842	-0.05199721	-0.35026296
4444	44.43000000	-0.92510142	-0.18729777	0.10197264	-0.48786680	0.04437644	-0.69877843	-0.52157026	-0.60808162	-0.28015688	-0.51510969	-0.66041394	0.04297348	-0.71992463	0.39021305	0.17411735	-0.70397585	0.07664209	0.38546610	-0.66477680	-0.42735059	-0.44057819	-0.72616333	-0.04837202	-0.34711259
4445	44.44000000	-0.92936840	-0.18882008	0.10089870	-0.49022083	0.04587960	-0.69780295	-0.52141991	-0.60899177	-0.28048937	-0.51820940	-0.66231348	0.04160975	-0.72401381	0.39656623	0.17171866	-0.70746271	0.07750950	0.38413161	-0.66904447	-0.43094812	-0.44075408	-0.73340604	-0.04582389	-0.34797252
4446	44.45000000	-0.92964430	-0.18198926	0.10182766	-0.49622264	0.04480091	-0.70429786	-0.51146891	-0.61017945	-0.28868251	-0.52443777	-0.66563899	0.03761793	-0.72757392	0.39656251	0.16494191	-0.71246025	0.07746462	0.37949617	-0.67490527	-0.43490223	-0.44606389	-0.73929666	-0.05186395	-0.35583069
4447	44.46000000	-0.92869060	-0.18776857	0.10180679	-0.49471194	0.04552613	-0.70564027	-0.50437791	-0.61396989	-0.29065710	-0.52399810	-0.66466528	0.03791642	-0.72625950	0.39934642	0.16286933	-0.71118159	0.08349566	0.38492455	-0.67514259	-0.43240899	-0.44346590	-0.73884932	-0.04708257	-0.35383405
4448	44.47000000	-0.93360227	-0.18777862	0.10821572	-0.49188542	0.04464494	-0.70387951	-0.50112464	-0.62127050	-0.29458537	-0.52440723	-0.67113669	0.04123730	-0.72382008	0.39755702	0.16338431	-0.70582413	0.08230205	0.39072919	-0.67625191	-0.43929881	-0.43811039	-0.73963421	-0.05085228	-0.35304304
4449	44.48000000	-0.92939387	-0.18657408	0.10599422	-0.48680969	0.04652030	-0.70511469	-0.49750234	-0.62610594	-0.29691237	-0.51768428	-0.66823522	0.03741804	-0.71660363	0.40048941	0.15938155	-0.69945537	0.08473644	0.38936998	-0.66980645	-0.44162565	-0.43788422	-0.73592322	-0.04936819	-0.35710073
